{"title":"Moon.Over.Miami.(1941).DVD.rip.xvid.(multisubs)","uid":6487547,"size":839188044,"categoryP":"video","categoryS":"movies","magnet":"?xt=urn:btih:ea764cfb54acde9984da3c2f315e7405f08750e7&amp;dn=Moon.Over.Miami.%281941%29.DVD.rip.xvid.%28multisubs%29&amp;tr=udp%3A%2F%2Ftracker.openbittorrent.com%3A80&amp;tr=udp%3A%2F%2Fopen.demonii.com%3A1337&amp;tr=udp%3A%2F%2Ftracker.coppersurfer.tk%3A6969&amp;tr=udp%3A%2F%2Fexodus.desync.com%3A6969","seeders":0,"leechers":1,"uploader":"shebo2011","files":6,"time":1308755959,"description":"Format                            : AVI\nFormat/Info                       : Audio Video Interleave\nFile size                         : 800 MiB\nDuration                          : 1h 31mn\nOverall bit rate                  : 1 219 Kbps\nWriting application               : VirtualDubMod 1.5.4.1 (build 2178/release)\nWriting library                   : VirtualDubMod build 2178/release\n\nVideo\nFormat                            : MPEG-4 Visual\nFormat profile                    : Advanced Simple@L5\nFormat settings, BVOP             : Yes\nFormat settings, QPel             : No\nFormat settings, GMC              : No warppoints\nFormat settings, Matrix           : Custom\nCodec ID                          : XVID\nCodec ID/Hint                     : XviD\nDuration                          : 1h 31mn\nBit rate                          : 1 084 Kbps\nWidth                             : 576 pixels\nHeight                            : 432 pixels\nDisplay aspect ratio              : 4:3\nFrame rate                        : 23.976 fps\nColor space                       : YUV\nChroma subsampling                : 4:2:0\nBit depth                         : 8 bits\nScan type                         : Progressive\nBits/(Pixel*Frame)                : 0.182\nStream size                       : 711 MiB (89%)\nWriting library                   : XviD 1.3.0.dev55\n\nAudio\nFormat                            : MPEG Audio\nFormat version                    : Version 1\nFormat profile                    : Layer 3\nMode                              : Joint stereo\nMode extension                    : MS Stereo\nCodec ID                          : 55\nCodec ID/Hint                     : MP3\nDuration                          : 1h 31mn\nBit rate mode                     : Constant\nBit rate                          : 128 Kbps\nChannel(s)                        : 2 channels\nSampling rate                     : 48.0 KHz\nStream size                       : 84.0 MiB (10%)\nAlignment                         : Aligned on interleaves\nInterleave, duration              : 83 ms (2.00 video frames)\nInterleave, preload duration      : 504 ms\nWriting library                   : LAME3.98r\nEncoding settings                 : -m j -V 4 -q 2 -lowpass 17 -b 128\nLanguage                          : English\n\n\nSubtitles (removable, .srt files) : Croatian, English, Spanish\n\nIF YOU DON'T NEED ANY OF THESE SUBTITLES\nSIMPLY DELETE THEM! (Delete .srt files)","torrent":{"xt":"urn:btih:ea764cfb54acde9984da3c2f315e7405f08750e7","amp;dn":"Moon.Over.Miami.%281941%29.DVD.rip.xvid.%28multisubs%29","amp;tr":["udp%3A%2F%2Ftracker.openbittorrent.com%3A80","udp%3A%2F%2Fopen.demonii.com%3A1337","udp%3A%2F%2Ftracker.coppersurfer.tk%3A6969","udp%3A%2F%2Fexodus.desync.com%3A6969"],"infoHash":"ea764cfb54acde9984da3c2f315e7405f08750e7","infoHashBuffer":{"type":"Buffer","data":[234,118,76,251,84,172,222,153,132,218,60,47,49,94,116,5,240,135,80,231]},"announce":[],"urlList":[]}}